<svg width="115" height="40" viewBox="0 0 115 40" fill="none" xmlns="http://www.w3.org/2000/svg">
<path d="M6.5332 14.7949H4.19922V20H1.26953V5.78125H6.55273C8.23242 5.78125 9.52799 6.1556 10.4395 6.9043C11.3509 7.65299 11.8066 8.71094 11.8066 10.0781C11.8066 11.0482 11.5951 11.8587 11.1719 12.5098C10.7552 13.1543 10.1204 13.6686 9.26758 14.0527L12.3438 19.8633V20H9.19922L6.5332 14.7949ZM4.19922 12.4219H6.5625C7.29818 12.4219 7.86784 12.2363 8.27148 11.8652C8.67513 11.4876 8.87695 10.9701 8.87695 10.3125C8.87695 9.64193 8.6849 9.11458 8.30078 8.73047C7.92318 8.34635 7.34049 8.1543 6.55273 8.1543H4.19922V12.4219ZM24.0977 13.8379H18.4727V17.6465H25.0742V20H15.543V5.78125H25.0547V8.1543H18.4727V11.543H24.0977V13.8379ZM35.666 16.2695C35.666 15.7161 35.4707 15.293 35.0801 15C34.6895 14.7005 33.9863 14.388 32.9707 14.0625C31.9551 13.7305 31.151 13.4049 30.5586 13.0859C28.944 12.2135 28.1367 11.0384 28.1367 9.56055C28.1367 8.79232 28.3516 8.10872 28.7812 7.50977C29.2174 6.9043 29.8392 6.43229 30.6465 6.09375C31.4603 5.75521 32.3717 5.58594 33.3809 5.58594C34.3965 5.58594 35.3014 5.77148 36.0957 6.14258C36.89 6.50716 37.5052 7.02474 37.9414 7.69531C38.3841 8.36589 38.6055 9.1276 38.6055 9.98047H35.6758C35.6758 9.32943 35.4707 8.82487 35.0605 8.4668C34.6504 8.10221 34.0742 7.91992 33.332 7.91992C32.6159 7.91992 32.0592 8.07292 31.6621 8.37891C31.265 8.67839 31.0664 9.07552 31.0664 9.57031C31.0664 10.0326 31.2975 10.4199 31.7598 10.7324C32.2285 11.0449 32.9154 11.3379 33.8203 11.6113C35.487 12.1126 36.7012 12.7344 37.4629 13.4766C38.2246 14.2188 38.6055 15.1432 38.6055 16.25C38.6055 17.4805 38.14 18.4473 37.209 19.1504C36.278 19.847 35.0247 20.1953 33.4492 20.1953C32.3555 20.1953 31.3594 19.9967 30.4609 19.5996C29.5625 19.196 28.8757 18.6458 28.4004 17.9492C27.9316 17.2526 27.6973 16.4453 27.6973 15.5273H30.6367C30.6367 17.0964 31.5742 17.8809 33.4492 17.8809C34.1458 17.8809 34.6895 17.7409 35.0801 17.4609C35.4707 17.1745 35.666 16.7773 35.666 16.2695ZM50.6523 13.8379H45.0273V17.6465H51.6289V20H42.0977V5.78125H51.6094V8.1543H45.0273V11.543H50.6523V13.8379ZM62.875 17.0703H57.7383L56.7617 20H53.6465L58.9395 5.78125H61.6543L66.9766 20H63.8613L62.875 17.0703ZM58.5293 14.6973H62.084L60.2969 9.375L58.5293 14.6973ZM75.0684 14.7949H72.7344V20H69.8047V5.78125H75.0879C76.7676 5.78125 78.0632 6.1556 78.9746 6.9043C79.8861 7.65299 80.3418 8.71094 80.3418 10.0781C80.3418 11.0482 80.1302 11.8587 79.707 12.5098C79.2904 13.1543 78.6556 13.6686 77.8027 14.0527L80.8789 19.8633V20H77.7344L75.0684 14.7949ZM72.7344 12.4219H75.0977C75.8333 12.4219 76.403 12.2363 76.8066 11.8652C77.2103 11.4876 77.4121 10.9701 77.4121 10.3125C77.4121 9.64193 77.2201 9.11458 76.8359 8.73047C76.4583 8.34635 75.8757 8.1543 75.0879 8.1543H72.7344V12.4219ZM95.2402 15.2637C95.1296 16.7936 94.5632 17.998 93.541 18.877C92.5254 19.7559 91.1842 20.1953 89.5176 20.1953C87.6947 20.1953 86.2591 19.5833 85.2109 18.3594C84.1693 17.1289 83.6484 15.4427 83.6484 13.3008V12.4316C83.6484 11.0645 83.8893 9.86003 84.3711 8.81836C84.8529 7.77669 85.5397 6.97917 86.4316 6.42578C87.3301 5.86589 88.3717 5.58594 89.5566 5.58594C91.1973 5.58594 92.5189 6.02539 93.5215 6.9043C94.5241 7.7832 95.1035 9.01693 95.2598 10.6055H92.3301C92.2585 9.6875 92.0013 9.02344 91.5586 8.61328C91.1224 8.19661 90.4551 7.98828 89.5566 7.98828C88.5801 7.98828 87.8477 8.33984 87.3594 9.04297C86.8776 9.73958 86.6302 10.8236 86.6172 12.2949V13.3691C86.6172 14.9056 86.8483 16.0286 87.3105 16.7383C87.7793 17.4479 88.515 17.8027 89.5176 17.8027C90.4225 17.8027 91.0964 17.5977 91.5391 17.1875C91.9883 16.7708 92.2454 16.1296 92.3105 15.2637H95.2402ZM110.236 20H107.307V13.9062H101.594V20H98.6641V5.78125H101.594V11.543H107.307V5.78125H110.236V20Z" fill="#FFC001"/>
<rect x="1" y="34" width="109" height="6" fill="#FFC001"/>
</svg>
